<svg width="512" height="512" viewBox="0 0 512 512" fill="none" xmlns="http://www.w3.org/2000/svg">
  <defs>
    <linearGradient id="gearGradient" x1="0%" y1="0%" x2="100%" y2="100%">
      <stop offset="0%" style="stop-color:#1E90FF;stop-opacity:1" />
      <stop offset="50%" style="stop-color:#0080FF;stop-opacity:1" />
      <stop offset="100%" style="stop-color:#0066CC;stop-opacity:1" />
    </linearGradient>
  </defs>
  
  <!-- Gear shape with gradient -->
  <path d="M256 96c-17.7 0-32 14.3-32 32v16h-32c-17.7 0-32 14.3-32 32v32h-16c-17.7 0-32 14.3-32 32s14.3 32 32 32h16v32c0 17.7 14.3 32 32 32h32v16c0 17.7 14.3 32 32 32s32-14.3 32-32v-16h32c17.7 0 32-14.3 32-32v-32h16c17.7 0 32-14.3 32-32s-14.3-32-32-32h-16v-32c0-17.7-14.3-32-32-32h-32v-16c0-17.7-14.3-32-32-32z M256 192c35.3 0 64 28.7 64 64s-28.7 64-64 64-64-28.7-64-64 28.7-64 64-64z" fill="url(#gearGradient)"/>
  
  <!-- Simplified gear shape -->
  <path d="M256 80L280 104L304 88L328 112L344 88L368 112L384 96L408 120L424 104L448 128L456 112L472 136L480 128L488 152L496 144L504 168L512 160V176L504 184L496 200L488 192L480 208L472 200L456 216L448 208L424 232L408 224L384 248L368 240L344 264L328 256L304 280L280 272L256 296L232 272L208 280L184 256L168 264L144 240L128 248L104 224L88 232L64 208L56 216L40 200L32 208L24 192L16 200L8 184L0 192V176L8 168L16 152L24 160L32 144L40 152L56 136L64 144L88 120L104 128L128 104L144 112L168 88L184 96L208 72L232 80L256 56V80Z M256 176C291.3 176 320 204.7 320 240S291.3 304 256 304S192 275.3 192 240S220.7 176 256 176Z" fill="url(#gearGradient)" transform="scale(0.8) translate(64, 64)"/>
  
  <!-- Better gear shape based on your image -->
  <g transform="translate(256, 256)">
    <!-- Outer teeth -->
    <path d="M-128 -32 L-112 -48 L-80 -48 L-64 -32 L-64 -16 L-80 0 L-112 0 L-128 -16 Z" fill="url(#gearGradient)"/>
    <path d="M-32 -128 L-16 -112 L-16 -80 L-32 -64 L-48 -64 L-64 -80 L-64 -112 L-48 -128 Z" fill="url(#gearGradient)"/>
    <path d="M32 -128 L48 -112 L48 -80 L32 -64 L16 -64 L0 -80 L0 -112 L16 -128 Z" fill="url(#gearGradient)"/>
    <path d="M128 -32 L112 -48 L80 -48 L64 -32 L64 -16 L80 0 L112 0 L128 -16 Z" fill="url(#gearGradient)"/>
    <path d="M128 32 L112 16 L80 16 L64 32 L64 48 L80 64 L112 64 L128 48 Z" fill="url(#gearGradient)"/>
    <path d="M32 128 L16 112 L16 80 L32 64 L48 64 L64 80 L64 112 L48 128 Z" fill="url(#gearGradient)"/>
    <path d="M-32 128 L-48 112 L-48 80 L-32 64 L-16 64 L0 80 L0 112 L-16 128 Z" fill="url(#gearGradient)"/>
    <path d="M-128 32 L-112 16 L-80 16 L-64 32 L-64 48 L-80 64 L-112 64 L-128 48 Z" fill="url(#gearGradient)"/>
    
    <!-- Main gear body -->
    <circle r="96" fill="url(#gearGradient)"/>
    
    <!-- Center hole -->
    <circle r="48" fill="white"/>
  </g>
</svg>
